<mxfile host="app.diagrams.net" modified="2020-11-28T07:02:18.795Z" agent="5.0 (Windows NT 10.0; WOW64) AppleWebKit/537.36 (KHTML, like Gecko) Chrome/70.0.3538.25 Safari/537.36 Core/1.70.3776.400 QQBrowser/10.6.4212.400" etag="DfCTnST6LAkMKNkWbevA" version="13.10.4" type="github">
  <diagram name="Page-1" id="c7558073-3199-34d8-9f00-42111426c3f3">
    <mxGraphModel dx="2888" dy="1129" grid="1" gridSize="10" guides="1" tooltips="1" connect="1" arrows="1" fold="1" page="1" pageScale="1" pageWidth="826" pageHeight="1169" background="#ffffff" math="0" shadow="0">
      <root>
        <mxCell id="0" />
        <mxCell id="1" parent="0" />
        <mxCell id="qRrrBjBxict_Q1ixO4cR-100" value="" style="edgeStyle=orthogonalEdgeStyle;rounded=0;orthogonalLoop=1;jettySize=auto;html=1;" edge="1" parent="1" source="qRrrBjBxict_Q1ixO4cR-96" target="qRrrBjBxict_Q1ixO4cR-99">
          <mxGeometry relative="1" as="geometry" />
        </mxCell>
        <mxCell id="qRrrBjBxict_Q1ixO4cR-102" style="edgeStyle=orthogonalEdgeStyle;rounded=0;orthogonalLoop=1;jettySize=auto;html=1;" edge="1" parent="1" source="qRrrBjBxict_Q1ixO4cR-96" target="qRrrBjBxict_Q1ixO4cR-101">
          <mxGeometry relative="1" as="geometry" />
        </mxCell>
        <mxCell id="qRrrBjBxict_Q1ixO4cR-105" style="edgeStyle=orthogonalEdgeStyle;rounded=0;orthogonalLoop=1;jettySize=auto;html=1;entryX=0.3;entryY=0.125;entryDx=0;entryDy=0;entryPerimeter=0;" edge="1" parent="1" source="qRrrBjBxict_Q1ixO4cR-96" target="qRrrBjBxict_Q1ixO4cR-103">
          <mxGeometry relative="1" as="geometry" />
        </mxCell>
        <mxCell id="qRrrBjBxict_Q1ixO4cR-106" style="edgeStyle=orthogonalEdgeStyle;rounded=0;orthogonalLoop=1;jettySize=auto;html=1;" edge="1" parent="1" source="qRrrBjBxict_Q1ixO4cR-96" target="qRrrBjBxict_Q1ixO4cR-104">
          <mxGeometry relative="1" as="geometry" />
        </mxCell>
        <mxCell id="qRrrBjBxict_Q1ixO4cR-96" value="Treasurebox" style="rounded=1;whiteSpace=wrap;html=1;fillColor=#dae8fc;strokeColor=#6c8ebf;" vertex="1" parent="1">
          <mxGeometry x="330" y="140" width="120" height="60" as="geometry" />
        </mxCell>
        <mxCell id="qRrrBjBxict_Q1ixO4cR-108" value="" style="edgeStyle=orthogonalEdgeStyle;rounded=0;orthogonalLoop=1;jettySize=auto;html=1;" edge="1" parent="1" source="qRrrBjBxict_Q1ixO4cR-99" target="qRrrBjBxict_Q1ixO4cR-107">
          <mxGeometry relative="1" as="geometry" />
        </mxCell>
        <mxCell id="qRrrBjBxict_Q1ixO4cR-99" value="16:00&lt;br&gt;&lt;b&gt;&lt;font color=&quot;#ff0000&quot;&gt;开始抽奖&lt;/font&gt;&lt;/b&gt;" style="triangle;whiteSpace=wrap;html=1;rounded=1;strokeColor=#b85450;fillColor=#f8cecc;align=left;" vertex="1" parent="1">
          <mxGeometry x="-225" y="270" width="70" height="80" as="geometry" />
        </mxCell>
        <mxCell id="qRrrBjBxict_Q1ixO4cR-101" value="14:00&lt;br&gt;&lt;b&gt;&lt;font color=&quot;#ff0000&quot;&gt;停止抽奖&lt;/font&gt;&lt;/b&gt;" style="triangle;whiteSpace=wrap;html=1;rounded=1;strokeColor=#b85450;fillColor=#f8cecc;align=left;" vertex="1" parent="1">
          <mxGeometry x="330" y="250" width="70" height="80" as="geometry" />
        </mxCell>
        <mxCell id="qRrrBjBxict_Q1ixO4cR-103" value="15:00&lt;br&gt;&lt;b&gt;&lt;font color=&quot;#ff0000&quot;&gt;公布抽奖&lt;/font&gt;&lt;/b&gt;" style="triangle;whiteSpace=wrap;html=1;rounded=1;strokeColor=#b85450;fillColor=#f8cecc;align=left;" vertex="1" parent="1">
          <mxGeometry x="480" y="250" width="70" height="80" as="geometry" />
        </mxCell>
        <mxCell id="qRrrBjBxict_Q1ixO4cR-104" value="12:00&lt;br&gt;&lt;font color=&quot;#ff0000&quot;&gt;&lt;b&gt;停止支付&lt;/b&gt;&lt;/font&gt;" style="triangle;whiteSpace=wrap;html=1;rounded=1;strokeColor=#b85450;fillColor=#f8cecc;align=left;" vertex="1" parent="1">
          <mxGeometry x="630" y="250" width="70" height="80" as="geometry" />
        </mxCell>
        <mxCell id="qRrrBjBxict_Q1ixO4cR-112" value="" style="edgeStyle=orthogonalEdgeStyle;rounded=0;orthogonalLoop=1;jettySize=auto;html=1;" edge="1" parent="1" source="qRrrBjBxict_Q1ixO4cR-107" target="qRrrBjBxict_Q1ixO4cR-111">
          <mxGeometry relative="1" as="geometry" />
        </mxCell>
        <mxCell id="qRrrBjBxict_Q1ixO4cR-107" value="商品类型表中&lt;br&gt;开始抽奖时间是否为空" style="rhombus;whiteSpace=wrap;html=1;rounded=1;align=center;strokeColor=#b85450;fillColor=#f8cecc;" vertex="1" parent="1">
          <mxGeometry x="-315" y="400" width="150" height="140" as="geometry" />
        </mxCell>
        <mxCell id="qRrrBjBxict_Q1ixO4cR-111" value="为空" style="whiteSpace=wrap;html=1;rounded=1;strokeColor=#b85450;fillColor=#f8cecc;" vertex="1" parent="1">
          <mxGeometry x="-530" y="440" width="120" height="60" as="geometry" />
        </mxCell>
      </root>
    </mxGraphModel>
  </diagram>
</mxfile>
